<svg version="1.1" id="Layer_1" xmlns="http://www.w3.org/2000/svg" xmlns:xlink="http://www.w3.org/1999/xlink" x="0px" y="0px"
	 width="100%" viewBox="0 0 1966 1334" enable-background="new 0 0 1966 1334" xml:space="preserve">
<path fill="#000000" opacity="1.000000" stroke="none" 
	d="
M1040.000000,1.000004 
	C1348.980957,1.000000 1657.961792,1.000000 1966.971436,1.000000 
	C1966.971436,445.620087 1966.971436,890.240173 1966.971436,1334.930176 
	C1311.753784,1334.930176 656.507507,1334.930176 1.130636,1334.930176 
	C1.130636,890.447937 1.130636,445.895844 1.130636,1.000000 
	C309.699310,1.000000 618.398743,1.000000 927.550903,1.421675 
	C926.323425,2.229326 924.658020,2.859651 922.960632,2.962084 
	C910.888611,3.690610 898.793518,4.093812 886.737427,5.015739 
	C867.287109,6.503108 847.839966,8.098431 828.431213,10.043946 
	C811.010681,11.790160 793.567810,13.576743 776.271851,16.236629 
	C753.933716,19.671938 731.699158,23.818176 709.478271,27.970306 
	C666.090637,36.077568 623.212341,46.468266 581.241821,60.059151 
	C548.388733,70.697639 515.934448,82.640549 483.610870,94.821014 
	C450.402283,107.334961 418.479218,122.768654 387.087036,139.351593 
	C353.085449,157.312927 320.289520,177.172653 288.694550,199.079361 
	C261.056885,218.242188 234.820541,239.173904 209.948349,261.754364 
	C197.544357,273.015411 185.796463,285.055573 174.361496,297.312164 
	C162.160446,310.389893 150.363312,323.877441 138.952103,337.651886 
	C118.741318,362.048218 101.380341,388.450836 86.391129,416.330566 
	C71.069412,444.828705 58.404606,474.488251 49.187134,505.581451 
	C39.080475,539.674255 33.166485,574.543457 32.248608,609.979858 
	C31.363010,644.169800 30.584574,678.489441 35.063343,712.555420 
	C37.686245,732.505432 40.143867,752.560608 44.397465,772.195435 
	C53.145653,812.577576 66.820107,851.402771 84.898346,888.598938 
	C98.602623,916.795532 114.889923,943.457520 132.973038,969.069214 
	C151.265015,994.976624 171.647797,1019.139832 193.619202,1041.928833 
	C204.791763,1053.517090 216.720505,1064.416504 228.760788,1075.117188 
	C241.736160,1086.648682 254.756287,1098.231812 268.633209,1108.622070 
	C287.932373,1123.072144 307.603790,1137.129517 327.934845,1150.068115 
	C348.983459,1163.463501 370.816010,1175.674316 392.680756,1187.722656 
	C406.317749,1195.237305 420.391357,1202.099243 434.723450,1208.183960 
	C464.555206,1220.848633 494.367554,1233.678955 524.779419,1244.827515 
	C563.269165,1258.937256 602.726501,1270.082886 642.683899,1279.456665 
	C680.315735,1288.285034 718.139954,1295.970947 756.463928,1301.048462 
	C782.482544,1304.495728 808.503113,1307.979248 834.587341,1310.862061 
	C851.844238,1312.769531 869.204773,1313.809692 886.539001,1314.925659 
	C900.932007,1315.852295 915.348633,1316.671631 929.765198,1316.910889 
	C949.997437,1317.246826 970.240540,1317.132935 990.476929,1316.967773 
	C1011.431885,1316.796631 1032.388550,1316.490356 1053.336304,1315.935425 
	C1064.254639,1315.646240 1075.162476,1314.796875 1086.062378,1314.019897 
	C1103.718628,1312.761475 1121.375000,1311.480713 1139.010742,1309.968506 
	C1152.506104,1308.811279 1166.011597,1307.601807 1179.436768,1305.838501 
	C1196.932495,1303.540527 1214.406006,1300.977417 1231.793335,1297.973999 
	C1255.199097,1293.930908 1278.595093,1289.751953 1301.848999,1284.926636 
	C1341.020874,1276.797974 1379.587646,1266.267578 1417.645752,1253.938477 
	C1454.020386,1242.154663 1489.991821,1229.158203 1524.476440,1212.617310 
	C1554.778320,1198.082520 1584.937256,1183.093140 1614.218140,1166.630493 
	C1642.887329,1150.511963 1670.324829,1132.185791 1696.003662,1111.491455 
	C1713.902344,1097.067017 1732.059204,1082.857178 1748.915771,1067.270020 
	C1774.285278,1043.811279 1797.993164,1018.630798 1819.156616,991.235901 
	C1840.016724,964.233765 1858.761108,935.791626 1874.689209,905.590027 
	C1887.293823,881.689819 1898.215576,857.000427 1906.946045,831.411682 
	C1916.832275,802.434998 1925.172241,773.010254 1928.983032,742.551025 
	C1931.750854,720.428467 1934.775635,698.246521 1935.693115,676.008850 
	C1936.679199,652.109192 1935.267578,628.114136 1935.033447,604.159485 
	C1934.835327,583.900269 1931.794189,564.001953 1928.071289,544.150818 
	C1921.513672,509.182922 1910.231079,475.751862 1895.182739,443.608368 
	C1881.465698,414.308746 1865.216675,386.496704 1846.239990,360.185242 
	C1828.167725,335.127899 1808.209229,311.742310 1786.850830,289.540375 
	C1776.271851,278.543274 1764.958496,268.204132 1753.484253,258.128937 
	C1738.821045,245.253693 1724.185181,232.243286 1708.581299,220.569366 
	C1688.748047,205.731308 1668.457031,191.371109 1647.447998,178.273392 
	C1622.467041,162.699539 1596.848267,148.061081 1570.896729,134.153976 
	C1538.913696,117.014610 1505.766724,102.143936 1471.729614,89.570122 
	C1439.783569,77.768799 1407.666138,66.235474 1375.055664,56.485474 
	C1343.604980,47.082237 1311.579956,39.426823 1279.522949,32.278481 
	C1252.485229,26.249414 1225.112427,21.597345 1197.750366,17.190643 
	C1178.199219,14.041883 1158.433594,12.190088 1138.738770,9.979836 
	C1122.488892,8.156181 1106.228027,6.313030 1089.925293,5.111008 
	C1074.549194,3.977313 1059.110229,3.712012 1043.706299,2.918541 
	C1042.441284,2.853375 1041.234131,1.665969 1040.000000,1.000004 
z"/>
<path fill="#2E3377" opacity="1.000000" stroke="none" 
	d="
M1039.531372,1.000004 
	C1041.234131,1.665969 1042.441284,2.853375 1043.706299,2.918541 
	C1059.110229,3.712012 1074.549194,3.977313 1089.925293,5.111008 
	C1106.228027,6.313030 1122.488892,8.156181 1138.738770,9.979836 
	C1158.433594,12.190088 1178.199219,14.041883 1197.750366,17.190643 
	C1225.112427,21.597345 1252.485229,26.249414 1279.522949,32.278481 
	C1311.579956,39.426823 1343.604980,47.082237 1375.055664,56.485474 
	C1407.666138,66.235474 1439.783569,77.768799 1471.729614,89.570122 
	C1505.766724,102.143936 1538.913696,117.014610 1570.896729,134.153976 
	C1596.848267,148.061081 1622.467041,162.699539 1647.447998,178.273392 
	C1668.457031,191.371109 1688.748047,205.731308 1708.581299,220.569366 
	C1724.185181,232.243286 1738.821045,245.253693 1753.484253,258.128937 
	C1764.958496,268.204132 1776.271851,278.543274 1786.850830,289.540375 
	C1808.209229,311.742310 1828.167725,335.127899 1846.239990,360.185242 
	C1865.216675,386.496704 1881.465698,414.308746 1895.182739,443.608368 
	C1910.231079,475.751862 1921.513672,509.182922 1928.071289,544.150818 
	C1931.794189,564.001953 1934.835327,583.900269 1935.033447,604.159485 
	C1935.267578,628.114136 1936.679199,652.109192 1935.693115,676.008850 
	C1934.775635,698.246521 1931.750854,720.428467 1928.983032,742.551025 
	C1925.172241,773.010254 1916.832275,802.434998 1906.946045,831.411682 
	C1898.215576,857.000427 1887.293823,881.689819 1874.689209,905.590027 
	C1858.761108,935.791626 1840.016724,964.233765 1819.156616,991.235901 
	C1797.993164,1018.630798 1774.285278,1043.811279 1748.915771,1067.270020 
	C1732.059204,1082.857178 1713.902344,1097.067017 1696.003662,1111.491455 
	C1670.324829,1132.185791 1642.887329,1150.511963 1614.218140,1166.630493 
	C1584.937256,1183.093140 1554.778320,1198.082520 1524.476440,1212.617310 
	C1489.991821,1229.158203 1454.020386,1242.154663 1417.645752,1253.938477 
	C1379.587646,1266.267578 1341.020874,1276.797974 1301.848999,1284.926636 
	C1278.595093,1289.751953 1255.199097,1293.930908 1231.793335,1297.973999 
	C1214.406006,1300.977417 1196.932495,1303.540527 1179.436768,1305.838501 
	C1166.011597,1307.601807 1152.506104,1308.811279 1139.010742,1309.968506 
	C1121.375000,1311.480713 1103.718628,1312.761475 1086.062378,1314.019897 
	C1075.162476,1314.796875 1064.254639,1315.646240 1053.336304,1315.935425 
	C1032.388550,1316.490356 1011.431885,1316.796631 990.476929,1316.967773 
	C970.240540,1317.132935 949.997437,1317.246826 929.765198,1316.910889 
	C915.348633,1316.671631 900.932007,1315.852295 886.539001,1314.925659 
	C869.204773,1313.809692 851.844238,1312.769531 834.587341,1310.862061 
	C808.503113,1307.979248 782.482544,1304.495728 756.463928,1301.048462 
	C718.139954,1295.970947 680.315735,1288.285034 642.683899,1279.456665 
	C602.726501,1270.082886 563.269165,1258.937256 524.779419,1244.827515 
	C494.367554,1233.678955 464.555206,1220.848633 434.723450,1208.183960 
	C420.391357,1202.099243 406.317749,1195.237305 392.680756,1187.722656 
	C370.816010,1175.674316 348.983459,1163.463501 327.934845,1150.068115 
	C307.603790,1137.129517 287.932373,1123.072144 268.633209,1108.622070 
	C254.756287,1098.231812 241.736160,1086.648682 228.760788,1075.117188 
	C216.720505,1064.416504 204.791763,1053.517090 193.619202,1041.928833 
	C171.647797,1019.139832 151.265015,994.976624 132.973038,969.069214 
	C114.889923,943.457520 98.602623,916.795532 84.898346,888.598938 
	C66.820107,851.402771 53.145653,812.577576 44.397465,772.195435 
	C40.143867,752.560608 37.686245,732.505432 35.063343,712.555420 
	C30.584574,678.489441 31.363010,644.169800 32.248608,609.979858 
	C33.166485,574.543457 39.080475,539.674255 49.187134,505.581451 
	C58.404606,474.488251 71.069412,444.828705 86.391129,416.330566 
	C101.380341,388.450836 118.741318,362.048218 138.952103,337.651886 
	C150.363312,323.877441 162.160446,310.389893 174.361496,297.312164 
	C185.796463,285.055573 197.544357,273.015411 209.948349,261.754364 
	C234.820541,239.173904 261.056885,218.242188 288.694550,199.079361 
	C320.289520,177.172653 353.085449,157.312927 387.087036,139.351593 
	C418.479218,122.768654 450.402283,107.334961 483.610870,94.821014 
	C515.934448,82.640549 548.388733,70.697639 581.241821,60.059151 
	C623.212341,46.468266 666.090637,36.077568 709.478271,27.970306 
	C731.699158,23.818176 753.933716,19.671938 776.271851,16.236629 
	C793.567810,13.576743 811.010681,11.790160 828.431213,10.043946 
	C847.839966,8.098431 867.287109,6.503108 886.737427,5.015739 
	C898.793518,4.093812 910.888611,3.690610 922.960632,2.962084 
	C924.658020,2.859651 926.323425,2.229326 928.001831,1.421675 
	C965.020935,1.000000 1002.041809,1.000000 1039.531372,1.000004 
M1127.636963,942.804932 
	C1128.072144,942.902344 1128.507324,942.999756 1128.963257,943.026428 
	C1128.963257,943.026428 1128.894897,943.054138 1128.528076,943.705627 
	C1132.017578,946.994568 1135.506958,950.283569 1139.399902,954.035339 
	C1145.427734,960.001648 1151.544434,965.881470 1157.457275,971.959656 
	C1162.915894,977.570740 1169.755249,980.386780 1177.227783,980.987610 
	C1202.589478,983.027039 1224.578735,976.295471 1241.373535,955.885925 
	C1247.626709,948.286743 1250.262451,940.001404 1247.251831,930.876221 
	C1245.219238,924.715332 1242.131104,918.425476 1237.945312,913.537292 
	C1222.234863,895.189880 1205.965210,877.316956 1189.738892,859.416931 
	C1176.663940,844.993042 1163.108643,830.996582 1150.311157,816.335022 
	C1147.120361,812.679199 1145.000000,807.356140 1144.208984,802.502563 
	C1142.872192,794.301086 1149.821167,789.268982 1157.648071,792.183289 
	C1160.401855,793.208618 1163.073975,794.831238 1165.346558,796.709534 
	C1179.202759,808.161743 1193.403320,819.256531 1206.599609,831.434448 
	C1228.511108,851.655212 1249.673218,872.685974 1271.308472,893.209351 
	C1280.759766,902.174744 1292.562744,906.130371 1305.305298,907.011963 
	C1330.492310,908.754456 1350.624512,897.742737 1367.353882,880.277954 
	C1377.775635,869.397949 1381.590210,855.483582 1378.802490,840.510498 
	C1376.871948,830.140808 1371.419312,821.156616 1364.027466,813.750183 
	C1323.771240,773.415100 1283.282837,733.311707 1243.075806,692.927856 
	C1239.830444,689.668274 1237.115234,685.172668 1235.886963,680.768005 
	C1233.667114,672.807922 1240.703003,665.748779 1248.587280,668.051025 
	C1253.328491,669.435547 1258.030762,672.308167 1261.750122,675.631653 
	C1307.597290,716.598816 1353.242065,757.792542 1399.015137,798.843018 
	C1401.698608,801.249695 1404.843872,803.324646 1408.095459,804.884338 
	C1425.979736,813.463074 1444.122925,813.390381 1462.177979,805.525574 
	C1467.015625,803.418274 1471.766479,800.759033 1475.949463,797.558838 
	C1503.825317,776.232422 1504.784790,739.290588 1478.194214,716.131958 
	C1453.945190,695.012634 1429.801147,673.769287 1405.335449,652.903442 
	C1317.996948,578.416321 1230.618408,503.975952 1143.074341,429.730774 
	C1122.114136,411.954712 1100.280640,395.272430 1075.632080,382.676483 
	C1047.054932,368.072998 1017.860291,368.247375 988.723328,379.992706 
	C962.612061,390.518372 939.604797,406.596497 917.232788,423.418335 
	C892.748352,441.828491 868.898926,461.089752 844.256653,479.280823 
	C829.513611,490.164246 813.425842,499.096100 795.562988,504.037506 
	C760.944885,513.613892 727.014099,509.939728 693.514526,498.338867 
	C678.952820,493.296143 665.602966,486.372955 655.818542,474.145203 
	C652.255798,469.692780 648.623108,464.661896 647.131897,459.307404 
	C642.964600,444.344116 649.241333,431.895477 658.961670,421.011627 
	C673.723145,404.483185 688.708069,388.153046 703.692078,371.824890 
	C720.460571,353.552124 737.333862,335.375488 754.703491,316.972504 
	C754.720642,316.742981 754.737854,316.513428 754.755005,316.283905 
	C754.340515,316.342468 753.926086,316.401031 752.727661,316.508514 
	C729.732300,322.532654 706.555908,327.947479 683.780762,334.713043 
	C641.694092,347.215210 599.146729,348.083740 556.245728,341.047058 
	C516.643127,334.551331 477.960083,324.010437 439.411682,313.024780 
	C384.548492,297.389648 330.533264,279.252075 277.653503,257.805084 
	C275.851959,257.074402 274.327881,255.659561 272.151581,254.217010 
	C271.740540,254.513260 270.506470,255.308960 269.375702,256.231262 
	C231.821350,286.863129 197.234100,320.456329 167.120621,358.532898 
	C127.216019,408.989716 97.275627,464.499237 81.495888,527.189026 
	C79.649269,534.525269 78.202423,541.962097 76.588371,549.270264 
	C78.766235,550.068970 80.155693,550.578552 81.782867,551.679443 
	C95.084503,555.817932 108.188133,560.809448 121.721245,563.950684 
	C188.502335,579.451477 254.793625,596.702942 319.616211,619.121521 
	C376.422882,638.767761 432.499298,660.158386 483.069489,695.364807 
	C483.653717,694.548706 484.419342,693.479248 485.805267,692.102051 
	C490.695862,688.430786 495.586487,684.759583 501.245209,681.103516 
	C501.530670,680.747192 501.816132,680.390869 502.008423,680.021973 
	C502.008423,680.021973 501.997162,680.115295 502.683899,680.343872 
	C503.150146,679.904785 503.616394,679.465759 504.009766,679.014954 
	C504.009766,679.014954 503.999023,679.087952 504.750671,679.286743 
	C522.823059,670.791199 541.670776,667.456543 561.521606,670.715942 
	C583.183899,674.272888 601.240845,684.369934 615.865295,700.671631 
	C617.398621,702.380798 618.704773,704.320496 621.250122,700.928894 
	C624.034363,698.904907 626.818604,696.880981 630.316528,695.074951 
	C630.891235,694.695557 631.465881,694.316162 632.015198,694.025696 
	C632.015198,694.025696 631.925232,694.004272 632.595886,694.037720 
	C632.764221,693.707031 632.932556,693.376343 633.023376,693.030945 
	C633.023376,693.030945 633.010864,693.108826 633.736084,693.425842 
	C654.505188,683.310486 676.362061,681.755737 698.868591,685.047852 
	C727.445190,689.227783 750.424316,702.495911 766.815125,726.588806 
	C767.428894,727.491089 768.297791,728.219849 769.055847,728.955933 
	C769.055847,728.955933 768.982849,728.943970 768.913513,729.627686 
	C769.259277,729.785400 769.605103,729.943115 769.970337,730.019165 
	C769.970337,730.019165 769.888245,730.001587 769.487854,730.620667 
	C770.025024,731.420227 770.562134,732.219788 771.005066,732.987915 
	C771.005066,732.987915 771.036926,732.893860 771.157532,733.646851 
	C773.060852,733.754272 775.116882,734.390137 776.845032,733.890991 
	C811.947998,723.751770 843.695374,731.974915 873.385010,751.410339 
	C876.801514,753.646729 879.839600,756.460999 883.053040,758.946594 
	C883.053040,758.946594 882.992249,758.945129 882.969788,759.579224 
	C883.329895,759.727356 883.690002,759.875488 884.051086,759.957520 
	C884.051086,759.957520 883.985046,759.954956 883.925354,760.562134 
	C884.797546,761.328247 885.669739,762.094360 887.018799,763.422363 
	C895.873230,775.008484 902.790039,787.707336 905.089417,802.130615 
	C907.035278,814.336975 907.293884,826.812317 908.128662,839.909668 
	C909.671570,840.379944 911.204956,841.225647 912.758728,841.264771 
	C942.745300,842.021118 968.486877,852.645996 989.674316,874.039612 
	C990.561096,874.934937 991.837158,875.444641 992.944458,876.050720 
	C992.944458,876.050720 992.860596,876.042419 992.315796,876.616516 
	C992.895508,877.082214 993.475281,877.547974 994.059082,877.951416 
	C994.059082,877.951416 993.997070,877.944153 993.993103,878.645996 
	C994.980347,879.462891 995.967590,880.279846 996.966736,881.027161 
	C996.966736,881.027161 996.896179,881.022827 996.537415,881.653381 
	C997.045898,882.109680 997.554321,882.566040 998.065552,882.955505 
	C998.065552,882.955505 998.001404,882.936340 997.926819,883.468323 
	C998.426575,883.925354 998.926392,884.382385 999.913269,885.431213 
	C1013.710815,905.901855 1020.714294,928.392029 1019.934753,953.160522 
	C1019.491577,967.242126 1015.627258,980.586182 1010.465332,994.188293 
	C1010.691528,994.744446 1010.762207,995.608643 1011.166138,995.812500 
	C1030.944824,1005.794312 1051.119507,1014.794373 1073.516235,1016.791443 
	C1080.281738,1017.394714 1087.189453,1016.405212 1094.875000,1016.019836 
	C1098.542969,1015.351501 1102.425659,1015.233032 1105.834473,1013.901306 
	C1113.119995,1011.055054 1120.630737,1008.316345 1127.159302,1004.141907 
	C1132.862671,1000.494995 1132.554443,995.953552 1128.050781,991.083313 
	C1104.634644,965.761353 1081.176880,940.477844 1057.823975,915.097656 
	C1055.141602,912.182556 1052.645020,908.960693 1050.714233,905.515686 
	C1045.288086,895.834045 1047.914062,890.012939 1059.383179,887.323425 
	C1063.627686,889.437744 1068.508301,890.807007 1072.007568,893.794312 
	C1087.889771,907.353149 1103.373047,921.378967 1119.030273,935.202332 
	C1120.599121,936.587463 1122.373657,937.739746 1124.046021,938.945068 
	C1124.046021,938.945068 1123.990601,938.946777 1124.125244,939.736267 
	C1124.734009,939.876892 1125.342896,940.017517 1125.948364,940.079346 
	C1125.948364,940.079346 1125.870117,940.088013 1125.546265,940.859314 
	C1126.005249,940.946350 1126.464233,941.033386 1126.958374,941.042908 
	C1126.958374,941.042908 1126.881226,941.078918 1126.589233,941.831543 
	C1127.036987,941.924072 1127.484863,942.016602 1127.966553,942.034241 
	C1127.966553,942.034241 1127.892212,942.069214 1127.636963,942.804932 
M278.950134,251.095490 
	C283.489441,247.900543 288.028748,244.705582 292.959991,241.234772 
	C289.256989,240.279877 287.081024,241.624710 276.607727,250.655319 
	C275.478943,251.593185 274.350128,252.531052 273.221344,253.468918 
	C273.472412,253.807312 273.723450,254.145706 273.974487,254.484100 
	C275.415375,253.422958 276.856262,252.361816 278.950134,251.095490 
M444.743530,710.751892 
	C428.611542,702.494751 412.782257,693.569458 396.293884,686.098938 
	C333.071136,657.454224 266.975647,637.118347 199.850800,620.094543 
	C158.919601,609.713806 117.689980,600.509827 76.379997,590.726501 
	C76.119812,592.387878 75.902374,593.354187 75.824974,594.331665 
	C73.299866,626.218262 74.762192,657.931335 80.377899,689.412659 
	C91.928734,754.165894 118.825615,812.302124 156.958862,865.486145 
	C200.071884,925.615417 253.753204,974.861938 314.183655,1017.015930 
	C393.694061,1072.479370 480.571808,1112.965332 572.461487,1143.063477 
	C698.428467,1184.323364 827.974854,1204.177979 960.275330,1206.814331 
	C1056.663818,1208.735229 1152.310913,1201.090088 1247.096069,1183.124390 
	C1321.640991,1168.995117 1394.424194,1148.730835 1465.054688,1120.954956 
	C1543.476929,1090.114868 1617.453125,1051.108398 1684.895996,1000.260986 
	C1744.603516,955.245483 1796.744995,903.013306 1836.576416,839.311584 
	C1880.648193,768.828430 1904.197266,692.485352 1901.021484,608.745850 
	C1900.874878,604.879761 1900.214600,601.033203 1899.803833,597.272583 
	C1769.989258,628.337646 1642.847412,666.085144 1519.679321,717.217834 
	C1521.187866,720.541016 1522.458496,723.236755 1523.644775,725.969055 
	C1535.403809,753.054443 1536.013428,780.014893 1519.593750,805.206543 
	C1501.370972,833.164734 1474.400391,847.779419 1441.357422,850.882019 
	C1432.371216,851.725830 1423.238647,851.010071 1413.807373,851.010071 
	C1412.975464,882.345093 1398.972656,907.133179 1372.647339,925.488831 
	C1347.044800,943.340393 1319.127441,950.630737 1287.983154,945.776978 
	C1287.118896,957.503479 1282.514282,967.325378 1275.814941,976.278442 
	C1274.817261,977.611694 1273.818970,978.960815 1272.678833,980.168518 
	C1254.203735,999.739197 1233.158691,1014.888000 1205.588501,1018.456238 
	C1193.080566,1020.075073 1180.678467,1019.041504 1168.359619,1016.341125 
	C1166.499390,1015.933350 1163.233765,1016.309143 1162.441895,1017.517578 
	C1153.555908,1031.078491 1140.927246,1039.510498 1126.046631,1045.015869 
	C1105.452148,1052.635254 1084.242432,1052.575928 1062.952026,1049.401733 
	C1038.968506,1045.826416 1016.876160,1036.672485 995.700745,1025.169678 
	C993.200378,1023.811279 991.681641,1023.625732 989.342651,1025.912109 
	C935.359070,1078.682373 847.409790,1062.215820 815.954041,993.552551 
	C815.354797,992.244507 814.642700,990.988098 814.015625,989.770386 
	C765.377563,1004.907959 717.278259,982.789368 691.793457,933.546570 
	C663.539612,938.724243 637.421509,932.481689 613.444824,916.873169 
	C589.039490,900.985657 574.685608,878.120361 568.313965,849.876892 
	C567.159546,849.958191 566.340332,849.942261 565.548706,850.082275 
	C526.097107,857.056152 485.821808,836.636047 467.906860,800.400146 
	C456.493378,777.314575 455.739838,753.315002 462.838745,728.944153 
	C464.165894,724.388123 463.352600,722.027344 459.351837,719.831482 
	C454.546082,717.193848 450.032867,714.023193 444.743530,710.751892 
M1110.806396,245.723816 
	C1092.750366,242.806931 1074.776733,239.143021 1056.619751,237.142151 
	C1026.796997,233.855713 997.045227,236.191238 967.520264,241.080231 
	C930.563965,247.199768 895.737061,259.219208 863.622314,278.834808 
	C836.280640,295.534973 811.792236,315.834412 789.589539,338.696320 
	C755.116455,374.193085 721.436462,410.460114 687.426758,446.406677 
	C686.856262,447.009735 686.375427,447.696808 685.838867,448.332977 
	C682.876587,451.845367 682.417053,455.445221 686.642578,458.044586 
	C692.969788,461.936768 699.197205,466.613800 706.145752,468.768829 
	C742.194702,479.949249 777.368958,478.278351 810.812317,459.371155 
	C816.744019,456.017670 822.688721,452.548462 828.101379,448.439728 
	C852.501282,429.917725 876.607544,411.008667 901.021057,392.504974 
	C923.726196,375.296234 946.976196,358.894836 973.414429,347.677734 
	C996.376648,337.935364 1020.128601,333.285156 1045.063965,336.938599 
	C1069.850952,340.570374 1092.291260,349.898468 1112.937134,364.194427 
	C1147.503662,388.129700 1180.197144,414.453949 1212.087891,441.736725 
	C1305.521606,521.670044 1398.631592,601.981873 1491.797852,682.227234 
	C1494.550537,684.598206 1496.557861,685.139221 1500.048950,683.561035 
	C1515.041138,676.783203 1530.103638,670.132385 1545.346680,663.943237 
	C1656.072021,618.986084 1770.046021,584.560181 1886.752319,559.062256 
	C1889.689453,558.420471 1893.534424,555.528748 1895.230713,561.427795 
	C1874.705322,440.151733 1806.536621,348.715912 1716.718506,270.697296 
	C1714.520020,271.881287 1712.985962,272.833344 1711.353882,273.567902 
	C1666.061401,293.953888 1619.474731,310.552307 1570.987549,321.622986 
	C1507.513306,336.115540 1443.524170,339.877686 1378.949707,330.748077 
	C1323.039795,322.843414 1269.767212,306.020905 1218.492920,282.625885 
	C1184.055664,266.913116 1148.544189,254.361435 1110.806396,245.723816 
M1177.877197,52.657204 
	C1172.923584,52.020500 1167.969849,51.385723 1163.016479,50.746815 
	C1112.071533,44.175636 1060.895874,40.802437 1009.552856,40.060482 
	C922.726440,38.805767 836.475464,45.156059 750.856384,59.882580 
	C681.864441,71.749222 614.224182,88.822266 548.201538,112.127510 
	C465.454559,141.336304 387.070129,179.275879 314.853607,229.454300 
	C313.423584,230.447937 312.024231,231.485703 310.002838,232.940155 
	C312.287170,233.891022 313.760712,234.545013 315.263153,235.123932 
	C389.880096,263.874664 466.332520,286.472717 544.388489,303.773376 
	C577.320007,311.072449 610.516296,312.470154 643.624939,306.806427 
	C665.204346,303.114899 686.420898,297.138397 707.652588,291.618256 
	C737.969055,283.736084 768.237305,275.885895 799.880371,275.693359 
	C801.739563,275.682007 803.846069,274.187134 805.403625,272.869659 
	C846.043030,238.493530 892.559875,216.395386 944.686584,205.935944 
	C1009.024414,193.026291 1072.788574,195.701523 1136.146240,212.473999 
	C1173.102173,222.257278 1208.192627,236.693619 1242.968750,252.402283 
	C1323.130371,288.611908 1407.214722,303.443085 1495.029175,295.838501 
	C1550.295410,291.052521 1603.526123,277.674591 1655.099487,257.462585 
	C1664.468018,253.790924 1673.729614,249.846436 1683.572266,245.809937 
	C1681.486328,244.188599 1680.075684,243.038849 1678.611572,241.961807 
	C1642.875366,215.673843 1605.226562,192.462173 1565.919312,171.918716 
	C1485.610596,129.946182 1400.976929,99.608253 1313.083008,78.097839 
	C1268.766479,67.252182 1223.996460,58.746346 1177.877197,52.657204 
M599.513062,714.997803 
	C598.336243,713.817993 597.194702,712.600464 595.977478,711.463989 
	C578.294434,694.956421 552.974670,690.849304 531.536865,700.996948 
	C510.495697,710.956909 496.713196,733.359131 498.371613,755.823547 
	C500.177216,780.282410 512.288635,797.998169 535.134460,807.179443 
	C558.051819,816.389404 578.483582,810.209412 596.767944,794.820312 
	C597.976990,793.802673 599.073792,792.651611 599.977783,791.794800 
	C606.052002,795.265686 606.957275,800.190186 605.753174,805.893188 
	C603.375732,817.153870 603.737915,828.390686 606.038513,839.612671 
	C612.091858,869.140015 639.203491,893.859741 669.234680,896.918457 
	C685.086853,898.532959 698.961121,893.288879 711.709167,884.102051 
	C713.980713,882.465027 718.053040,881.085938 720.137085,882.060852 
	C722.214050,883.032471 722.933533,887.075134 724.038208,889.854736 
	C724.375671,890.703735 724.066772,891.833374 723.972229,892.826721 
	C722.472290,908.584656 728.338989,921.457275 739.424194,932.278198 
	C747.412903,940.076538 757.067078,945.229187 767.120544,949.788330 
	C787.951294,959.234741 806.878540,956.464905 824.071960,941.324829 
	C826.405884,939.269714 829.125977,937.461304 831.963074,936.208618 
	C838.323792,933.399780 843.241272,936.509644 843.942932,943.482605 
	C844.342529,947.454041 844.463257,951.458496 844.984802,955.411865 
	C850.774353,999.296997 895.354248,1028.713867 937.876526,1016.474731 
	C996.010254,999.742188 1004.742310,928.743469 969.286377,892.678894 
	C952.605164,875.711243 932.536560,866.976379 908.486633,870.173157 
	C900.657898,871.213806 893.177124,874.685425 885.368652,876.140991 
	C881.105652,876.935791 875.615112,877.278442 872.251770,875.234985 
	C867.916565,872.601074 871.083008,867.385071 872.076416,863.291870 
	C872.271423,862.488403 872.640259,861.728638 872.893372,860.937378 
	C877.809875,845.565613 880.386719,829.858765 878.966858,813.706787 
	C877.306152,794.814148 869.757812,778.996094 853.380310,768.499390 
	C841.907654,761.146240 829.453613,756.104675 815.596130,755.487732 
	C797.793457,754.695129 782.750366,760.824890 770.138428,773.416199 
	C768.294556,775.257019 764.791077,777.258057 762.829224,776.657593 
	C760.771301,776.027588 759.460571,772.448730 758.197021,769.968262 
	C757.651062,768.896729 758.070923,767.345825 758.005554,766.014954 
	C756.852356,742.563782 740.987976,722.034424 718.905273,715.761902 
	C713.482239,714.221497 707.882996,713.230774 702.313904,712.287354 
	C670.549133,706.905945 638.522705,722.161499 622.722290,750.084534 
	C620.797424,753.486145 618.788940,756.840332 616.516541,760.735168 
	C610.565796,729.551331 609.498230,726.655334 599.513062,714.997803 
z"/>
<path fill="#FFE600" opacity="1.000000" stroke="none" 
	d="
M445.068237,710.917603 
	C450.032867,714.023193 454.546082,717.193848 459.351837,719.831482 
	C463.352600,722.027344 464.165894,724.388123 462.838745,728.944153 
	C455.739838,753.315002 456.493378,777.314575 467.906860,800.400146 
	C485.821808,836.636047 526.097107,857.056152 565.548706,850.082275 
	C566.340332,849.942261 567.159546,849.958191 568.313965,849.876892 
	C574.685608,878.120361 589.039490,900.985657 613.444824,916.873169 
	C637.421509,932.481689 663.539612,938.724243 691.793457,933.546570 
	C717.278259,982.789368 765.377563,1004.907959 814.015625,989.770386 
	C814.642700,990.988098 815.354797,992.244507 815.954041,993.552551 
	C847.409790,1062.215820 935.359070,1078.682373 989.342651,1025.912109 
	C991.681641,1023.625732 993.200378,1023.811279 995.700745,1025.169678 
	C1016.876160,1036.672485 1038.968506,1045.826416 1062.952026,1049.401733 
	C1084.242432,1052.575928 1105.452148,1052.635254 1126.046631,1045.015869 
	C1140.927246,1039.510498 1153.555908,1031.078491 1162.441895,1017.517578 
	C1163.233765,1016.309143 1166.499390,1015.933350 1168.359619,1016.341125 
	C1180.678467,1019.041504 1193.080566,1020.075073 1205.588501,1018.456238 
	C1233.158691,1014.888000 1254.203735,999.739197 1272.678833,980.168518 
	C1273.818970,978.960815 1274.817261,977.611694 1275.814941,976.278442 
	C1282.514282,967.325378 1287.118896,957.503479 1287.983154,945.776978 
	C1319.127441,950.630737 1347.044800,943.340393 1372.647339,925.488831 
	C1398.972656,907.133179 1412.975464,882.345093 1413.807373,851.010071 
	C1423.238647,851.010071 1432.371216,851.725830 1441.357422,850.882019 
	C1474.400391,847.779419 1501.370972,833.164734 1519.593750,805.206543 
	C1536.013428,780.014893 1535.403809,753.054443 1523.644775,725.969055 
	C1522.458496,723.236755 1521.187866,720.541016 1519.679321,717.217834 
	C1642.847412,666.085144 1769.989258,628.337646 1899.803833,597.272583 
	C1900.214600,601.033203 1900.874878,604.879761 1901.021484,608.745850 
	C1904.197266,692.485352 1880.648193,768.828430 1836.576416,839.311584 
	C1796.744995,903.013306 1744.603516,955.245483 1684.895996,1000.260986 
	C1617.453125,1051.108398 1543.476929,1090.114868 1465.054688,1120.954956 
	C1394.424194,1148.730835 1321.640991,1168.995117 1247.096069,1183.124390 
	C1152.310913,1201.090088 1056.663818,1208.735229 960.275330,1206.814331 
	C827.974854,1204.177979 698.428467,1184.323364 572.461487,1143.063477 
	C480.571808,1112.965332 393.694061,1072.479370 314.183655,1017.015930 
	C253.753204,974.861938 200.071884,925.615417 156.958862,865.486145 
	C118.825615,812.302124 91.928734,754.165894 80.377899,689.412659 
	C74.762192,657.931335 73.299866,626.218262 75.824974,594.331665 
	C75.902374,593.354187 76.119812,592.387878 76.379997,590.726501 
	C117.689980,600.509827 158.919601,609.713806 199.850800,620.094543 
	C266.975647,637.118347 333.071136,657.454224 396.293884,686.098938 
	C412.782257,693.569458 428.611542,702.494751 445.068237,710.917603 
z"/>
<path fill="#FFFFFF" opacity="1.000000" stroke="none" 
	d="
M908.299194,839.168579 
	C907.293884,826.812317 907.035278,814.336975 905.089417,802.130615 
	C902.790039,787.707336 895.873230,775.008484 886.762085,762.799805 
	C885.665283,761.436462 884.825134,760.695740 883.985046,759.954956 
	C883.985046,759.954956 884.051086,759.957520 884.197998,759.591187 
	C883.893982,759.131653 883.443115,759.038391 882.992249,758.945129 
	C882.992249,758.945129 883.053040,758.946594 883.385315,758.733093 
	C881.383545,755.944153 879.213196,753.194458 876.687805,750.822754 
	C864.302490,739.191040 848.901489,733.570129 832.948547,729.016602 
	C813.887085,723.575867 795.172607,724.368408 776.705811,731.604980 
	C774.921814,732.304077 772.931458,732.476807 771.036926,732.893860 
	C771.036926,732.893860 771.005066,732.987915 771.261108,732.677856 
	C770.974243,731.579041 770.431213,730.790344 769.888245,730.001587 
	C769.888245,730.001587 769.970337,730.019165 770.007812,729.700195 
	C769.691101,729.235474 769.336975,729.089722 768.982849,728.943970 
	C768.982849,728.943970 769.055847,728.955933 769.322510,728.685181 
	C761.403503,711.061707 748.733521,697.979553 731.325012,690.019043 
	C709.610779,680.089600 686.750488,676.930542 663.188354,681.278076 
	C652.470581,683.255554 641.963074,686.349426 633.010864,693.108826 
	C633.010864,693.108826 633.023376,693.030945 632.728516,693.006104 
	C632.264099,693.322205 632.094666,693.663208 631.925232,694.004272 
	C631.925232,694.004272 632.015198,694.025696 631.690186,693.838806 
	C630.777710,694.053589 630.190308,694.455322 629.602905,694.857056 
	C626.818604,696.880981 624.034363,698.904907 620.646912,700.864746 
	C597.454224,672.835144 568.525391,661.003967 532.872070,667.102173 
	C522.466248,668.881958 512.334412,671.995117 503.999023,679.087952 
	C503.999023,679.087952 504.009766,679.014954 503.721680,678.955811 
	C502.954803,679.302917 502.475983,679.709106 501.997162,680.115295 
	C501.997162,680.115295 502.008423,680.021973 501.715149,680.069946 
	C501.106934,680.441406 500.791992,680.764893 500.477051,681.088379 
	C495.586487,684.759583 490.695862,688.430786 485.186340,692.064819 
	C477.085205,687.061401 469.804688,681.754517 462.087524,677.185059 
	C417.939362,651.044434 370.456512,632.438110 322.077576,615.982605 
	C260.331818,594.980652 197.286484,578.651733 133.747986,564.109070 
	C116.269257,560.108582 98.941933,555.446655 81.545143,551.088135 
	C80.155693,550.578552 78.766235,550.068970 76.588371,549.270264 
	C78.202423,541.962097 79.649269,534.525269 81.495888,527.189026 
	C97.275627,464.499237 127.216019,408.989716 167.120621,358.532898 
	C197.234100,320.456329 231.821350,286.863129 269.375702,256.231262 
	C270.506470,255.308960 271.740540,254.513260 272.151581,254.217010 
	C274.327881,255.659561 275.851959,257.074402 277.653503,257.805084 
	C330.533264,279.252075 384.548492,297.389648 439.411682,313.024780 
	C477.960083,324.010437 516.643127,334.551331 556.245728,341.047058 
	C599.146729,348.083740 641.694092,347.215210 683.780762,334.713043 
	C706.555908,327.947479 729.732300,322.532654 753.278076,316.662170 
	C753.828430,316.815826 754.161499,317.156982 754.161499,317.156982 
	C737.333862,335.375488 720.460571,353.552124 703.692078,371.824890 
	C688.708069,388.153046 673.723145,404.483185 658.961670,421.011627 
	C649.241333,431.895477 642.964600,444.344116 647.131897,459.307404 
	C648.623108,464.661896 652.255798,469.692780 655.818542,474.145203 
	C665.602966,486.372955 678.952820,493.296143 693.514526,498.338867 
	C727.014099,509.939728 760.944885,513.613892 795.562988,504.037506 
	C813.425842,499.096100 829.513611,490.164246 844.256653,479.280823 
	C868.898926,461.089752 892.748352,441.828491 917.232788,423.418335 
	C939.604797,406.596497 962.612061,390.518372 988.723328,379.992706 
	C1017.860291,368.247375 1047.054932,368.072998 1075.632080,382.676483 
	C1100.280640,395.272430 1122.114136,411.954712 1143.074341,429.730774 
	C1230.618408,503.975952 1317.996948,578.416321 1405.335449,652.903442 
	C1429.801147,673.769287 1453.945190,695.012634 1478.194214,716.131958 
	C1504.784790,739.290588 1503.825317,776.232422 1475.949463,797.558838 
	C1471.766479,800.759033 1467.015625,803.418274 1462.177979,805.525574 
	C1444.122925,813.390381 1425.979736,813.463074 1408.095459,804.884338 
	C1404.843872,803.324646 1401.698608,801.249695 1399.015137,798.843018 
	C1353.242065,757.792542 1307.597290,716.598816 1261.750122,675.631653 
	C1258.030762,672.308167 1253.328491,669.435547 1248.587280,668.051025 
	C1240.703003,665.748779 1233.667114,672.807922 1235.886963,680.768005 
	C1237.115234,685.172668 1239.830444,689.668274 1243.075806,692.927856 
	C1283.282837,733.311707 1323.771240,773.415100 1364.027466,813.750183 
	C1371.419312,821.156616 1376.871948,830.140808 1378.802490,840.510498 
	C1381.590210,855.483582 1377.775635,869.397949 1367.353882,880.277954 
	C1350.624512,897.742737 1330.492310,908.754456 1305.305298,907.011963 
	C1292.562744,906.130371 1280.759766,902.174744 1271.308472,893.209351 
	C1249.673218,872.685974 1228.511108,851.655212 1206.599609,831.434448 
	C1193.403320,819.256531 1179.202759,808.161743 1165.346558,796.709534 
	C1163.073975,794.831238 1160.401855,793.208618 1157.648071,792.183289 
	C1149.821167,789.268982 1142.872192,794.301086 1144.208984,802.502563 
	C1145.000000,807.356140 1147.120361,812.679199 1150.311157,816.335022 
	C1163.108643,830.996582 1176.663940,844.993042 1189.738892,859.416931 
	C1205.965210,877.316956 1222.234863,895.189880 1237.945312,913.537292 
	C1242.131104,918.425476 1245.219238,924.715332 1247.251831,930.876221 
	C1250.262451,940.001404 1247.626709,948.286743 1241.373535,955.885925 
	C1224.578735,976.295471 1202.589478,983.027039 1177.227783,980.987610 
	C1169.755249,980.386780 1162.915894,977.570740 1157.457275,971.959656 
	C1151.544434,965.881470 1145.427734,960.001648 1139.251953,953.426514 
	C1135.700806,949.563232 1132.297852,946.308716 1128.894897,943.054138 
	C1128.894897,943.054138 1128.963257,943.026428 1128.986084,942.738403 
	C1128.636719,942.323303 1128.264526,942.196228 1127.892212,942.069214 
	C1127.892212,942.069214 1127.966553,942.034241 1127.978271,941.749878 
	C1127.620361,941.336609 1127.250854,941.207764 1126.881226,941.078918 
	C1126.881226,941.078918 1126.958374,941.042908 1126.966064,940.760742 
	C1126.605835,940.348450 1126.237915,940.218262 1125.870117,940.088013 
	C1125.870117,940.088013 1125.948364,940.079346 1125.894775,939.708496 
	C1125.224365,939.207397 1124.607544,939.077087 1123.990601,938.946777 
	C1123.990601,938.946777 1124.046021,938.945068 1124.364868,938.716187 
	C1107.997070,923.110535 1091.378662,907.658386 1074.553101,892.435181 
	C1071.915039,890.048279 1068.479248,888.340637 1065.136230,887.015076 
	C1063.277222,886.277893 1060.847656,886.979065 1058.675293,887.032043 
	C1047.914062,890.012939 1045.288086,895.834045 1050.714233,905.515686 
	C1052.645020,908.960693 1055.141602,912.182556 1057.823975,915.097656 
	C1081.176880,940.477844 1104.634644,965.761353 1128.050781,991.083313 
	C1132.554443,995.953552 1132.862671,1000.494995 1127.159302,1004.141907 
	C1120.630737,1008.316345 1113.119995,1011.055054 1105.834473,1013.901306 
	C1102.425659,1015.233032 1098.542969,1015.351501 1094.090332,1016.004395 
	C1083.723022,1015.132935 1074.036865,1014.889404 1064.579712,1013.291748 
	C1045.560913,1010.078796 1028.144165,1002.103821 1010.932007,993.735474 
	C1015.627258,980.586182 1019.491577,967.242126 1019.934753,953.160522 
	C1020.714294,928.392029 1013.710815,905.901855 999.652222,884.824951 
	C998.927856,883.791260 998.464600,883.363831 998.001404,882.936340 
	C998.001404,882.936340 998.065552,882.955505 998.236145,882.663818 
	C997.903259,881.922363 997.399719,881.472595 996.896179,881.022827 
	C996.896179,881.022827 996.966736,881.027161 996.987366,880.692261 
	C996.004333,879.552979 995.000732,878.748596 993.997070,877.944153 
	C993.997070,877.944153 994.059082,877.951416 994.321289,877.684570 
	C994.009155,876.959290 993.434875,876.500854 992.860596,876.042419 
	C992.860596,876.042419 992.944458,876.050720 992.981689,875.741333 
	C991.498352,873.684753 990.076111,871.839172 988.442322,870.205139 
	C966.303894,848.062744 939.280579,838.496338 908.299194,839.168579 
z"/>
<path fill="#FFFFFF" opacity="1.000000" stroke="none" 
	d="
M1111.213745,245.811737 
	C1148.544189,254.361435 1184.055664,266.913116 1218.492920,282.625885 
	C1269.767212,306.020905 1323.039795,322.843414 1378.949707,330.748077 
	C1443.524170,339.877686 1507.513306,336.115540 1570.987549,321.622986 
	C1619.474731,310.552307 1666.061401,293.953888 1711.353882,273.567902 
	C1712.985962,272.833344 1714.520020,271.881287 1716.718506,270.697296 
	C1806.536621,348.715912 1874.705322,440.151733 1895.230713,561.427795 
	C1893.534424,555.528748 1889.689453,558.420471 1886.752319,559.062256 
	C1770.046021,584.560181 1656.072021,618.986084 1545.346680,663.943237 
	C1530.103638,670.132385 1515.041138,676.783203 1500.048950,683.561035 
	C1496.557861,685.139221 1494.550537,684.598206 1491.797852,682.227234 
	C1398.631592,601.981873 1305.521606,521.670044 1212.087891,441.736725 
	C1180.197144,414.453949 1147.503662,388.129700 1112.937134,364.194427 
	C1092.291260,349.898468 1069.850952,340.570374 1045.063965,336.938599 
	C1020.128601,333.285156 996.376648,337.935364 973.414429,347.677734 
	C946.976196,358.894836 923.726196,375.296234 901.021057,392.504974 
	C876.607544,411.008667 852.501282,429.917725 828.101379,448.439728 
	C822.688721,452.548462 816.744019,456.017670 810.812317,459.371155 
	C777.368958,478.278351 742.194702,479.949249 706.145752,468.768829 
	C699.197205,466.613800 692.969788,461.936768 686.642578,458.044586 
	C682.417053,455.445221 682.876587,451.845367 685.838867,448.332977 
	C686.375427,447.696808 686.856262,447.009735 687.426758,446.406677 
	C721.436462,410.460114 755.116455,374.193085 789.589539,338.696320 
	C811.792236,315.834412 836.280640,295.534973 863.622314,278.834808 
	C895.737061,259.219208 930.563965,247.199768 967.520264,241.080231 
	C997.045227,236.191238 1026.796997,233.855713 1056.619751,237.142151 
	C1074.776733,239.143021 1092.750366,242.806931 1111.213745,245.811737 
z"/>
<path fill="#FFE600" opacity="1.000000" stroke="none" 
	d="
M1178.313965,52.729065 
	C1223.996460,58.746346 1268.766479,67.252182 1313.083008,78.097839 
	C1400.976929,99.608253 1485.610596,129.946182 1565.919312,171.918716 
	C1605.226562,192.462173 1642.875366,215.673843 1678.611572,241.961807 
	C1680.075684,243.038849 1681.486328,244.188599 1683.572266,245.809937 
	C1673.729614,249.846436 1664.468018,253.790924 1655.099487,257.462585 
	C1603.526123,277.674591 1550.295410,291.052521 1495.029175,295.838501 
	C1407.214722,303.443085 1323.130371,288.611908 1242.968750,252.402283 
	C1208.192627,236.693619 1173.102173,222.257278 1136.146240,212.473999 
	C1072.788574,195.701523 1009.024414,193.026291 944.686584,205.935944 
	C892.559875,216.395386 846.043030,238.493530 805.403625,272.869659 
	C803.846069,274.187134 801.739563,275.682007 799.880371,275.693359 
	C768.237305,275.885895 737.969055,283.736084 707.652588,291.618256 
	C686.420898,297.138397 665.204346,303.114899 643.624939,306.806427 
	C610.516296,312.470154 577.320007,311.072449 544.388489,303.773376 
	C466.332520,286.472717 389.880096,263.874664 315.263153,235.123932 
	C313.760712,234.545013 312.287170,233.891022 310.002838,232.940155 
	C312.024231,231.485703 313.423584,230.447937 314.853607,229.454300 
	C387.070129,179.275879 465.454559,141.336304 548.201538,112.127510 
	C614.224182,88.822266 681.864441,71.749222 750.856384,59.882580 
	C836.475464,45.156059 922.726440,38.805767 1009.552856,40.060482 
	C1060.895874,40.802437 1112.071533,44.175636 1163.016479,50.746815 
	C1167.969849,51.385723 1172.923584,52.020500 1178.313965,52.729065 
z"/>
<path fill="#FEFEFF" opacity="1.000000" stroke="none" 
	d="
M599.751892,715.259399 
	C609.498230,726.655334 610.565796,729.551331 616.516541,760.735168 
	C618.788940,756.840332 620.797424,753.486145 622.722290,750.084534 
	C638.522705,722.161499 670.549133,706.905945 702.313904,712.287354 
	C707.882996,713.230774 713.482239,714.221497 718.905273,715.761902 
	C740.987976,722.034424 756.852356,742.563782 758.005554,766.014954 
	C758.070923,767.345825 757.651062,768.896729 758.197021,769.968262 
	C759.460571,772.448730 760.771301,776.027588 762.829224,776.657593 
	C764.791077,777.258057 768.294556,775.257019 770.138428,773.416199 
	C782.750366,760.824890 797.793457,754.695129 815.596130,755.487732 
	C829.453613,756.104675 841.907654,761.146240 853.380310,768.499390 
	C869.757812,778.996094 877.306152,794.814148 878.966858,813.706787 
	C880.386719,829.858765 877.809875,845.565613 872.893372,860.937378 
	C872.640259,861.728638 872.271423,862.488403 872.076416,863.291870 
	C871.083008,867.385071 867.916565,872.601074 872.251770,875.234985 
	C875.615112,877.278442 881.105652,876.935791 885.368652,876.140991 
	C893.177124,874.685425 900.657898,871.213806 908.486633,870.173157 
	C932.536560,866.976379 952.605164,875.711243 969.286377,892.678894 
	C1004.742310,928.743469 996.010254,999.742188 937.876526,1016.474731 
	C895.354248,1028.713867 850.774353,999.296997 844.984802,955.411865 
	C844.463257,951.458496 844.342529,947.454041 843.942932,943.482605 
	C843.241272,936.509644 838.323792,933.399780 831.963074,936.208618 
	C829.125977,937.461304 826.405884,939.269714 824.071960,941.324829 
	C806.878540,956.464905 787.951294,959.234741 767.120544,949.788330 
	C757.067078,945.229187 747.412903,940.076538 739.424194,932.278198 
	C728.338989,921.457275 722.472290,908.584656 723.972229,892.826721 
	C724.066772,891.833374 724.375671,890.703735 724.038208,889.854736 
	C722.933533,887.075134 722.214050,883.032471 720.137085,882.060852 
	C718.053040,881.085938 713.980713,882.465027 711.709167,884.102051 
	C698.961121,893.288879 685.086853,898.532959 669.234680,896.918457 
	C639.203491,893.859741 612.091858,869.140015 606.038513,839.612671 
	C603.737915,828.390686 603.375732,817.153870 605.753174,805.893188 
	C606.957275,800.190186 606.052002,795.265686 599.977783,791.794800 
	C599.073792,792.651611 597.976990,793.802673 596.767944,794.820312 
	C578.483582,810.209412 558.051819,816.389404 535.134460,807.179443 
	C512.288635,797.998169 500.177216,780.282410 498.371613,755.823547 
	C496.713196,733.359131 510.495697,710.956909 531.536865,700.996948 
	C552.974670,690.849304 578.294434,694.956421 595.977478,711.463989 
	C597.194702,712.600464 598.336243,713.817993 599.751892,715.259399 
z"/>
<path fill="#F7E00E" opacity="1.000000" stroke="none" 
	d="
M81.664001,551.383789 
	C98.941933,555.446655 116.269257,560.108582 133.747986,564.109070 
	C197.286484,578.651733 260.331818,594.980652 322.077576,615.982605 
	C370.456512,632.438110 417.939362,651.044434 462.087524,677.185059 
	C469.804688,681.754517 477.085205,687.061401 484.876160,692.218750 
	C484.419342,693.479248 483.653717,694.548706 483.069489,695.364807 
	C432.499298,660.158386 376.422882,638.767761 319.616211,619.121521 
	C254.793625,596.702942 188.502335,579.451477 121.721245,563.950684 
	C108.188133,560.809448 95.084503,555.817932 81.664001,551.383789 
z"/>
<path fill="#F7E00E" opacity="1.000000" stroke="none" 
	d="
M633.373474,693.267334 
	C641.963074,686.349426 652.470581,683.255554 663.188354,681.278076 
	C686.750488,676.930542 709.610779,680.089600 731.325012,690.019043 
	C748.733521,697.979553 761.403503,711.061707 769.318481,728.721924 
	C768.297791,728.219849 767.428894,727.491089 766.815125,726.588806 
	C750.424316,702.495911 727.445190,689.227783 698.868591,685.047852 
	C676.362061,681.755737 654.505188,683.310486 633.373474,693.267334 
z"/>
<path fill="#F7E00E" opacity="1.000000" stroke="none" 
	d="
M504.374847,679.187378 
	C512.334412,671.995117 522.466248,668.881958 532.872070,667.102173 
	C568.525391,661.003967 597.454224,672.835144 620.362488,701.002930 
	C618.704773,704.320496 617.398621,702.380798 615.865295,700.671631 
	C601.240845,684.369934 583.183899,674.272888 561.521606,670.715942 
	C541.670776,667.456543 522.823059,670.791199 504.374847,679.187378 
z"/>
<path fill="#F7E00E" opacity="1.000000" stroke="none" 
	d="
M771.097229,733.270386 
	C772.931458,732.476807 774.921814,732.304077 776.705811,731.604980 
	C795.172607,724.368408 813.887085,723.575867 832.948547,729.016602 
	C848.901489,733.570129 864.302490,739.191040 876.687805,750.822754 
	C879.213196,753.194458 881.383545,755.944153 883.385376,758.763489 
	C879.839600,756.460999 876.801514,753.646729 873.385010,751.410339 
	C843.695374,731.974915 811.947998,723.751770 776.845032,733.890991 
	C775.116882,734.390137 773.060852,733.754272 771.097229,733.270386 
z"/>
<path fill="#F3DE19" opacity="1.000000" stroke="none" 
	d="
M908.213928,839.539124 
	C939.280579,838.496338 966.303894,848.062744 988.442322,870.205139 
	C990.076111,871.839172 991.498352,873.684753 992.975342,875.783020 
	C991.837158,875.444641 990.561096,874.934937 989.674316,874.039612 
	C968.486877,852.645996 942.745300,842.021118 912.758728,841.264771 
	C911.204956,841.225647 909.671570,840.379944 908.213928,839.539124 
z"/>
<path fill="#F1DC14" opacity="1.000000" stroke="none" 
	d="
M1059.029297,887.177734 
	C1060.847656,886.979065 1063.277222,886.277893 1065.136230,887.015076 
	C1068.479248,888.340637 1071.915039,890.048279 1074.553101,892.435181 
	C1091.378662,907.658386 1107.997070,923.110535 1124.368164,938.743652 
	C1122.373657,937.739746 1120.599121,936.587463 1119.030273,935.202332 
	C1103.373047,921.378967 1087.889771,907.353149 1072.007568,893.794312 
	C1068.508301,890.807007 1063.627686,889.437744 1059.029297,887.177734 
z"/>
<path fill="#F3DD17" opacity="1.000000" stroke="none" 
	d="
M1010.698669,993.961914 
	C1028.144165,1002.103821 1045.560913,1010.078796 1064.579712,1013.291748 
	C1074.036865,1014.889404 1083.723022,1015.132935 1093.668701,1016.067139 
	C1087.189453,1016.405212 1080.281738,1017.394714 1073.516235,1016.791443 
	C1051.119507,1014.794373 1030.944824,1005.794312 1011.166138,995.812500 
	C1010.762207,995.608643 1010.691528,994.744446 1010.698669,993.961914 
z"/>
<path fill="#FFFFFF" opacity="1.000000" stroke="none" 
	d="
M277.236298,250.301407 
	C287.081024,241.624710 289.256989,240.279877 292.959991,241.234772 
	C288.028748,244.705582 283.489441,247.900543 278.359711,250.946899 
	C277.591644,250.632690 277.413971,250.467041 277.236298,250.301407 
z"/>
<path fill="#F1DC14" opacity="1.000000" stroke="none" 
	d="
M1128.711426,943.379883 
	C1132.297852,946.308716 1135.700806,949.563232 1139.050171,953.195129 
	C1135.506958,950.283569 1132.017578,946.994568 1128.711426,943.379883 
z"/>
<path fill="#FFFFFF" opacity="1.000000" stroke="none" 
	d="
M278.033203,251.049500 
	C276.856262,252.361816 275.415375,253.422958 273.974487,254.484100 
	C273.723450,254.145706 273.472412,253.807312 273.221344,253.468918 
	C274.350128,252.531052 275.478943,251.593185 276.921997,250.478363 
	C277.413971,250.467041 277.591644,250.632690 278.033203,251.049500 
z"/>
<path fill="#F7E00E" opacity="1.000000" stroke="none" 
	d="
M883.955200,760.258545 
	C884.825134,760.695740 885.665283,761.436462 886.523682,762.518860 
	C885.669739,762.094360 884.797546,761.328247 883.955200,760.258545 
z"/>
<path fill="#F3DE19" opacity="1.000000" stroke="none" 
	d="
M993.995117,878.295044 
	C995.000732,878.748596 996.004333,879.552979 996.981445,880.727112 
	C995.967590,880.279846 994.980347,879.462891 993.995117,878.295044 
z"/>
<path fill="#F3DE19" opacity="1.000000" stroke="none" 
	d="
M997.964111,883.202332 
	C998.464600,883.363831 998.927856,883.791260 999.408691,884.529053 
	C998.926392,884.382385 998.426575,883.925354 997.964111,883.202332 
z"/>
<path fill="#F7E00E" opacity="1.000000" stroke="none" 
	d="
M769.688049,730.311157 
	C770.431213,730.790344 770.974243,731.579041 771.308228,732.693604 
	C770.562134,732.219788 770.025024,731.420227 769.688049,730.311157 
z"/>
<path fill="#F3DE19" opacity="1.000000" stroke="none" 
	d="
M996.716797,881.338135 
	C997.399719,881.472595 997.903259,881.922363 998.234741,882.697266 
	C997.554321,882.566040 997.045898,882.109680 996.716797,881.338135 
z"/>
<path fill="#F1DC14" opacity="1.000000" stroke="none" 
	d="
M1124.057861,939.341553 
	C1124.607544,939.077087 1125.224365,939.207397 1125.896484,939.747864 
	C1125.342896,940.017517 1124.734009,939.876892 1124.057861,939.341553 
z"/>
<path fill="#F7E00E" opacity="1.000000" stroke="none" 
	d="
M629.959717,694.966003 
	C630.190308,694.455322 630.777710,694.053589 631.702881,693.794312 
	C631.465881,694.316162 630.891235,694.695557 629.959717,694.966003 
z"/>
<path fill="#F3DE19" opacity="1.000000" stroke="none" 
	d="
M992.588196,876.329468 
	C993.434875,876.500854 994.009155,876.959290 994.319214,877.715698 
	C993.475281,877.547974 992.895508,877.082214 992.588196,876.329468 
z"/>
<path fill="#F7E00E" opacity="1.000000" stroke="none" 
	d="
M502.340515,680.229614 
	C502.475983,679.709106 502.954803,679.302917 503.758118,678.961670 
	C503.616394,679.465759 503.150146,679.904785 502.340515,680.229614 
z"/>
<path fill="#FFFFFF" opacity="1.000000" stroke="none" 
	d="
M753.670044,316.637726 
	C753.926086,316.401031 754.340515,316.342468 754.755005,316.283905 
	C754.737854,316.513428 754.720642,316.742981 754.432495,317.064758 
	C754.161499,317.156982 753.828430,316.815826 753.670044,316.637726 
z"/>
<path fill="#F7E00E" opacity="1.000000" stroke="none" 
	d="
M500.861145,681.095947 
	C500.791992,680.764893 501.106934,680.441406 501.761719,680.076233 
	C501.816132,680.390869 501.530670,680.747192 500.861145,681.095947 
z"/>
<path fill="#F7E00E" opacity="1.000000" stroke="none" 
	d="
M882.981018,759.262207 
	C883.443115,759.038391 883.893982,759.131653 884.197510,759.624268 
	C883.690002,759.875488 883.329895,759.727356 882.981018,759.262207 
z"/>
<path fill="#F1DC14" opacity="1.000000" stroke="none" 
	d="
M1125.708252,940.473633 
	C1126.237915,940.218262 1126.605835,940.348450 1126.948486,940.799561 
	C1126.464233,941.033386 1126.005249,940.946350 1125.708252,940.473633 
z"/>
<path fill="#F1DC14" opacity="1.000000" stroke="none" 
	d="
M1126.735229,941.455200 
	C1127.250854,941.207764 1127.620361,941.336609 1127.961304,941.787292 
	C1127.484863,942.016602 1127.036987,941.924072 1126.735229,941.455200 
z"/>
<path fill="#F1DC14" opacity="1.000000" stroke="none" 
	d="
M1127.764648,942.437073 
	C1128.264526,942.196228 1128.636719,942.323303 1128.975830,942.773804 
	C1128.507324,942.999756 1128.072144,942.902344 1127.764648,942.437073 
z"/>
<path fill="#F7E00E" opacity="1.000000" stroke="none" 
	d="
M768.948181,729.285828 
	C769.336975,729.089722 769.691101,729.235474 769.998047,729.741028 
	C769.605103,729.943115 769.259277,729.785400 768.948181,729.285828 
z"/>
<path fill="#F7E00E" opacity="1.000000" stroke="none" 
	d="
M632.260559,694.020996 
	C632.094666,693.663208 632.264099,693.322205 632.767212,693.013428 
	C632.932556,693.376343 632.764221,693.707031 632.260559,694.020996 
z"/>
</svg>